# xmcd CD database file
#
# Track frame offsets:
#	150
#	28585
#	51097
#	85010
#	103697
#	144212
#	172532
#	194015
#	207537
#	237937
#	267102
#	293200
#
# Disc length: 4157 seconds
#
# Revision: 0
# Processed by: cddbd v1.4PL0 Copyright (c) Steve Scherf et al.
# Submitted via: CDex 1.50Beta7
#
DISCID=a2103b0c
DTITLE=Central Coast Jazz Quartet - At Home
DYEAR=2001
DGENRE=Jazz
TTITLE0=Moonlight in Vermont
TTITLE1=Lined with a Groove
TTITLE2=Poinciana
TTITLE3=Blues Up and Down
TTITLE4=Body and Soul
TTITLE5=Trickynometry
TTITLE6=You Don't Know What Love Is
TTITLE7=Til Tom Special
TTITLE8=My Funny Valentine
TTITLE9=Pensativa
TTITLE10=Just Fiends
TTITLE11=One Kind Word
EXTD=YEAR: 2001
EXTT0=
EXTT1=
EXTT2=
EXTT3=
EXTT4=
EXTT5=
EXTT6=
EXTT7=
EXTT8=
EXTT9=
EXTT10=
EXTT11=
PLAYORDER=
